<mxfile host="app.diagrams.net" modified="2022-12-09T02:31:59.368Z" agent="5.0 (Windows NT 6.1; Win64; x64) AppleWebKit/537.36 (KHTML, like Gecko) Chrome/100.0.4896.127 Safari/537.36" version="20.6.2" etag="HuK8iMON9Xa6Ue1HqARd" type="github">
  <diagram id="4LsoYp_KNZsjHwKz5yr7" name="第 1 页">
    <mxGraphModel dx="1422" dy="762" grid="1" gridSize="10" guides="1" tooltips="1" connect="1" arrows="1" fold="1" page="1" pageScale="1" pageWidth="827" pageHeight="1169" math="0" shadow="0">
      <root>
        <mxCell id="0" />
        <mxCell id="1" parent="0" />
        <mxCell id="GFLpQE0lX9ckQGl0N_Tt-5" value="" style="rounded=1;whiteSpace=wrap;html=1;strokeWidth=2;fillWeight=4;hachureGap=8;hachureAngle=45;fillColor=#1ba1e2;sketch=1;" vertex="1" parent="1">
          <mxGeometry x="206" y="40" width="120" height="60" as="geometry" />
        </mxCell>
        <mxCell id="GFLpQE0lX9ckQGl0N_Tt-6" value="" style="rounded=1;whiteSpace=wrap;html=1;strokeWidth=2;fillWeight=4;hachureGap=8;hachureAngle=45;fillColor=#f5f5f5;sketch=1;fontColor=#333333;strokeColor=#666666;" vertex="1" parent="1">
          <mxGeometry x="180" y="40" width="26" height="60" as="geometry" />
        </mxCell>
        <mxCell id="GFLpQE0lX9ckQGl0N_Tt-7" value="" style="rounded=1;whiteSpace=wrap;html=1;strokeWidth=2;fillWeight=4;hachureGap=8;hachureAngle=45;fillColor=#1ba1e2;sketch=1;" vertex="1" parent="1">
          <mxGeometry x="356" y="40" width="120" height="60" as="geometry" />
        </mxCell>
        <mxCell id="GFLpQE0lX9ckQGl0N_Tt-8" value="" style="rounded=1;whiteSpace=wrap;html=1;strokeWidth=2;fillWeight=4;hachureGap=8;hachureAngle=45;fillColor=#f5f5f5;sketch=1;fontColor=#333333;strokeColor=#666666;" vertex="1" parent="1">
          <mxGeometry x="330" y="40" width="26" height="60" as="geometry" />
        </mxCell>
        <mxCell id="GFLpQE0lX9ckQGl0N_Tt-9" value="" style="rounded=1;whiteSpace=wrap;html=1;strokeWidth=2;fillWeight=4;hachureGap=8;hachureAngle=45;fillColor=#1ba1e2;sketch=1;" vertex="1" parent="1">
          <mxGeometry x="506" y="40" width="120" height="60" as="geometry" />
        </mxCell>
        <mxCell id="GFLpQE0lX9ckQGl0N_Tt-10" value="" style="rounded=1;whiteSpace=wrap;html=1;strokeWidth=2;fillWeight=4;hachureGap=8;hachureAngle=45;fillColor=#f5f5f5;sketch=1;fontColor=#333333;strokeColor=#666666;" vertex="1" parent="1">
          <mxGeometry x="480" y="40" width="26" height="60" as="geometry" />
        </mxCell>
        <mxCell id="GFLpQE0lX9ckQGl0N_Tt-12" value="&lt;b&gt;&lt;font style=&quot;font-size: 18px;&quot;&gt;age&lt;/font&gt;&lt;/b&gt;" style="text;html=1;align=center;verticalAlign=middle;resizable=0;points=[];autosize=1;strokeColor=none;fillColor=none;" vertex="1" parent="1">
          <mxGeometry x="90" y="50" width="50" height="40" as="geometry" />
        </mxCell>
        <mxCell id="GFLpQE0lX9ckQGl0N_Tt-17" value="32" style="rounded=1;whiteSpace=wrap;html=1;strokeWidth=2;fillWeight=4;hachureGap=8;hachureAngle=45;fillColor=#dae8fc;sketch=1;fontSize=18;strokeColor=#6c8ebf;" vertex="1" parent="1">
          <mxGeometry x="110" y="239" width="120" height="60" as="geometry" />
        </mxCell>
        <mxCell id="GFLpQE0lX9ckQGl0N_Tt-18" value="70001" style="rounded=1;whiteSpace=wrap;html=1;strokeWidth=2;fillWeight=4;hachureGap=8;hachureAngle=45;fillColor=#d5e8d4;sketch=1;fontSize=18;strokeColor=#82b366;" vertex="1" parent="1">
          <mxGeometry x="110" y="299" width="120" height="60" as="geometry" />
        </mxCell>
        <mxCell id="GFLpQE0lX9ckQGl0N_Tt-19" value="age" style="text;html=1;resizable=0;autosize=1;align=center;verticalAlign=middle;points=[];fillColor=none;strokeColor=none;rounded=0;fontSize=18;" vertex="1" parent="1">
          <mxGeometry x="35" y="248" width="50" height="40" as="geometry" />
        </mxCell>
        <mxCell id="GFLpQE0lX9ckQGl0N_Tt-20" value="id" style="text;html=1;resizable=0;autosize=1;align=center;verticalAlign=middle;points=[];fillColor=none;strokeColor=none;rounded=0;fontSize=18;" vertex="1" parent="1">
          <mxGeometry x="40" y="309" width="40" height="40" as="geometry" />
        </mxCell>
        <mxCell id="GFLpQE0lX9ckQGl0N_Tt-21" value="18" style="rounded=1;whiteSpace=wrap;html=1;strokeWidth=2;fillWeight=4;hachureGap=8;hachureAngle=45;fillColor=#dae8fc;sketch=1;fontSize=18;strokeColor=#6c8ebf;" vertex="1" parent="1">
          <mxGeometry x="370" y="239" width="120" height="60" as="geometry" />
        </mxCell>
        <mxCell id="GFLpQE0lX9ckQGl0N_Tt-22" value="70002" style="rounded=1;whiteSpace=wrap;html=1;strokeWidth=2;fillWeight=4;hachureGap=8;hachureAngle=45;fillColor=#d5e8d4;sketch=1;fontSize=18;strokeColor=#82b366;" vertex="1" parent="1">
          <mxGeometry x="370" y="299" width="120" height="60" as="geometry" />
        </mxCell>
        <mxCell id="GFLpQE0lX9ckQGl0N_Tt-33" value="" style="shape=flexArrow;endArrow=classic;startArrow=classic;html=1;rounded=0;fontSize=18;endSize=0;startSize=4;width=5;exitX=0.25;exitY=0;exitDx=0;exitDy=0;" edge="1" parent="1" source="GFLpQE0lX9ckQGl0N_Tt-17">
          <mxGeometry width="100" height="100" relative="1" as="geometry">
            <mxPoint x="150" y="227" as="sourcePoint" />
            <mxPoint x="190" y="97" as="targetPoint" />
          </mxGeometry>
        </mxCell>
        <mxCell id="GFLpQE0lX9ckQGl0N_Tt-36" value="" style="shape=flexArrow;endArrow=classic;startArrow=classic;html=1;rounded=0;fontSize=18;endSize=0;startSize=4;width=5;exitX=0.575;exitY=0;exitDx=0;exitDy=0;exitPerimeter=0;" edge="1" parent="1" source="GFLpQE0lX9ckQGl0N_Tt-21">
          <mxGeometry width="100" height="100" relative="1" as="geometry">
            <mxPoint x="310" y="230" as="sourcePoint" />
            <mxPoint x="350" y="100" as="targetPoint" />
          </mxGeometry>
        </mxCell>
      </root>
    </mxGraphModel>
  </diagram>
</mxfile>
